<svg xmlns="http://www.w3.org/2000/svg" xmlns:v="https://svgstorm.com"
viewBox = "0 0 665 633"
width="665"
height="633">
<g fill="None" fill-opacity="0.0" stroke="#FDFAF4" stroke-opacity="1.00" stroke-width="0.3"><path d="
M 0.00 633.00 
L 665.00 633.00
L 665.00 0.00
L 0.00 0.00
L 0.00 633.00
M 235.00 51.00 
C 264.49 55.79 282.41 95.65 263.23 120.23 C 244.05 144.81 203.78 139.74 190.23 111.77 C 176.68 83.80 202.43 45.71 235.00 51.00
M 488.00 90.00 
C 488.56 93.46 488.61 96.58 488.00 100.00
C 485.97 129.89 445.85 146.65 421.92 129.08 C 397.99 111.51 398.31 74.78 423.75 57.75 C 449.19 40.72 486.31 58.87 488.00 90.00
M 343.00 93.00 
C 368.80 96.69 381.34 130.59 364.75 150.75 C 348.16 170.92 315.17 166.74 304.68 143.32 C 294.19 119.91 316.59 89.23 343.00 93.00
M 135.00 122.00 
C 147.70 122.00 164.02 127.00 174.08 133.92 C 184.14 140.84 195.40 146.80 201.00 158.00
C 210.05 161.95 222.21 150.80 232.00 154.00 C 241.79 157.20 256.25 153.05 265.67 156.33 C 275.09 159.60 282.53 162.03 291.22 165.78 C 299.92 169.52 307.42 172.36 315.00 178.00
C 318.20 180.38 322.70 183.55 322.00 188.00
C 318.02 187.58 313.56 188.99 310.00 187.00
C 285.15 187.22 274.69 228.41 289.00 245.00
C 315.56 255.68 326.94 281.50 338.00 305.00
C 350.83 284.21 357.82 253.60 385.00 245.00
C 385.26 244.77 385.65 244.11 386.00 244.00
C 394.27 234.95 389.70 221.12 390.00 210.00 C 390.31 198.87 378.02 195.12 371.00 189.00
C 365.35 186.78 357.92 189.49 353.00 186.00
C 354.94 184.23 358.18 183.80 361.00 184.00
C 357.57 181.43 359.68 177.39 363.00 176.00
C 393.42 155.76 432.13 149.73 469.00 155.00
C 479.23 154.84 483.36 145.45 491.00 140.00
C 499.46 133.96 507.30 130.81 517.07 127.07 C 526.85 123.33 541.08 122.48 552.00 123.00 C 562.92 123.52 574.68 126.58 584.08 130.92 C 593.47 135.27 600.27 139.33 607.75 146.25 C 615.22 153.18 619.89 159.41 624.77 168.23 C 629.65 177.05 632.68 187.79 634.98 198.02 C 637.28 208.25 637.47 223.41 636.00 234.00 C 634.53 244.59 631.30 255.36 628.02 265.02 C 624.74 274.69 619.54 283.27 614.75 291.75 C 609.95 300.22 604.81 307.44 598.75 314.75 C 592.69 322.06 586.59 328.16 579.75 334.75 C 572.92 341.34 565.69 347.41 558.75 353.75 C 551.81 360.09 544.41 365.31 537.25 371.25 C 530.09 377.19 523.22 382.95 516.25 389.25 C 509.28 395.54 501.51 401.07 494.75 407.75 C 487.99 414.44 481.89 420.71 475.75 427.75 C 469.61 434.80 462.85 440.74 457.25 448.25 C 451.65 455.76 445.26 463.00 439.75 470.75 C 434.24 478.50 428.74 485.62 424.23 494.23 C 419.72 502.84 414.45 510.58 411.23 520.23 C 408.01 529.88 403.62 540.95 402.67 551.67 C 401.72 562.39 398.17 577.49 401.00 589.00 C 403.83 600.51 389.30 612.15 385.23 599.77 C 381.16 587.39 387.25 575.84 386.00 563.00 C 384.75 550.16 385.02 537.92 384.00 526.00 C 382.98 514.08 376.42 504.53 377.00 493.00
C 371.77 502.90 362.81 508.91 361.07 521.07 C 359.33 533.24 352.66 543.15 352.01 556.01 C 351.35 568.87 351.38 584.88 349.67 597.67 C 347.96 610.46 326.31 609.48 325.01 596.99 C 323.71 584.51 325.13 567.14 323.01 554.99 C 320.89 542.85 317.62 531.19 314.02 519.98 C 310.43 508.76 305.36 500.27 299.00 491.00
C 301.47 502.79 292.43 515.10 292.00 527.00 C 291.58 538.91 292.14 556.51 290.00 568.00 C 287.86 579.49 300.06 596.54 287.25 604.25 C 274.44 611.96 272.65 587.22 274.00 577.00 C 275.35 566.78 271.51 549.22 269.01 538.99 C 266.50 528.77 261.18 517.52 257.22 507.78 C 253.27 498.04 247.36 488.84 242.08 479.92 C 236.80 471.00 229.93 462.63 223.25 454.75 C 216.57 446.88 210.89 438.65 203.70 431.30 C 196.50 423.95 189.46 417.06 182.25 409.75 C 175.04 402.44 166.88 395.51 159.25 388.75 C 151.62 381.99 143.12 376.47 135.75 369.25 C 128.39 362.02 120.17 356.10 112.25 349.75 C 104.33 343.40 96.68 337.25 89.75 329.25 C 82.82 321.25 76.42 313.49 70.08 304.92 C 63.74 296.34 58.69 288.34 53.23 278.77 C 47.77 269.20 44.26 259.10 41.07 247.93 C 37.89 236.75 37.30 221.70 37.78 209.78 C 38.26 197.86 42.24 185.24 46.77 174.77 C 51.31 164.30 55.29 156.54 63.25 148.25 C 71.21 139.95 77.85 134.97 88.22 130.22 C 98.60 125.47 111.95 122.00 124.00 122.00
C 127.46 121.67 131.61 121.67 135.00 122.00 Z"/>
</g>
<g fill="None" fill-opacity="0.0" stroke="#5AB4BE" stroke-opacity="1.00" stroke-width="0.3"><path d="
M 235.00 51.00 
C 202.43 45.71 176.68 83.80 190.23 111.77 C 203.78 139.74 244.05 144.81 263.23 120.23 C 282.41 95.65 264.49 55.79 235.00 51.00 Z"/>
</g>
<g fill="None" fill-opacity="0.0" stroke="#D93567" stroke-opacity="1.00" stroke-width="0.3"><path d="
M 488.00 100.00 
C 488.22 96.75 488.18 93.25 488.00 90.00
C 486.31 58.87 449.19 40.72 423.75 57.75 C 398.31 74.78 397.99 111.51 421.92 129.08 C 445.85 146.65 485.97 129.89 488.00 100.00 Z"/>
</g>
<g fill="None" fill-opacity="0.0" stroke="#ED9DB2" stroke-opacity="1.00" stroke-width="0.3"><path d="
M 488.00 100.00 
C 488.61 96.58 488.56 93.46 488.00 90.00
C 488.18 93.25 488.22 96.75 488.00 100.00 Z"/>
</g>
<g fill="None" fill-opacity="0.0" stroke="#EFB43D" stroke-opacity="1.00" stroke-width="0.3"><path d="
M 343.00 93.00 
C 316.59 89.23 294.19 119.91 304.68 143.32 C 315.17 166.74 348.16 170.92 364.75 150.75 C 381.34 130.59 368.80 96.69 343.00 93.00 Z"/>
</g>
<g fill="None" fill-opacity="0.0" stroke="#EC99AE" stroke-opacity="1.00" stroke-width="0.3"><path d="
M 124.00 122.00 
C 127.67 122.00 131.33 122.00 135.00 122.00
C 131.61 121.67 127.46 121.67 124.00 122.00 Z"/>
</g>
<g fill="None" fill-opacity="0.0" stroke="#D93463" stroke-opacity="1.00" stroke-width="0.3"><path d="
M 299.00 491.00 
C 286.84 473.27 272.72 456.42 257.25 440.75 C 241.77 425.08 223.11 413.51 209.00 397.00
C 206.98 395.24 204.19 394.62 203.00 392.00
C 196.99 390.32 192.33 382.59 187.75 378.25 C 183.17 373.91 178.31 368.14 173.75 363.25 C 169.19 358.35 165.85 352.02 161.08 346.92 C 156.32 341.82 153.61 335.21 149.70 329.31 C 145.78 323.40 142.22 317.59 139.08 310.92 C 135.93 304.25 133.44 297.54 130.69 290.31 C 127.94 283.07 125.92 274.30 126.00 266.00 C 126.08 257.70 127.77 248.25 129.78 240.78 C 131.78 233.30 134.37 226.34 137.92 219.92 C 141.48 213.51 145.12 208.14 150.25 203.25 C 155.37 198.36 159.72 192.86 165.25 189.25 C 170.77 185.64 178.58 181.77 183.68 178.68 C 188.78 175.59 204.46 177.60 206.00 171.00
C 203.01 167.77 202.93 161.85 201.00 158.00
C 195.40 146.80 184.14 140.84 174.08 133.92 C 164.02 127.00 147.70 122.00 135.00 122.00
C 131.33 122.00 127.67 122.00 124.00 122.00
C 111.95 122.00 98.60 125.47 88.22 130.22 C 77.85 134.97 71.21 139.95 63.25 148.25 C 55.29 156.54 51.31 164.30 46.77 174.77 C 42.24 185.24 38.26 197.86 37.78 209.78 C 37.30 221.70 37.89 236.75 41.07 247.93 C 44.26 259.10 47.77 269.20 53.23 278.77 C 58.69 288.34 63.74 296.34 70.08 304.92 C 76.42 313.49 82.82 321.25 89.75 329.25 C 96.68 337.25 104.33 343.40 112.25 349.75 C 120.17 356.10 128.39 362.02 135.75 369.25 C 143.12 376.47 151.62 381.99 159.25 388.75 C 166.88 395.51 175.04 402.44 182.25 409.75 C 189.46 417.06 196.50 423.95 203.70 431.30 C 210.89 438.65 216.57 446.88 223.25 454.75 C 229.93 462.63 236.80 471.00 242.08 479.92 C 247.36 488.84 253.27 498.04 257.22 507.78 C 261.18 517.52 266.50 528.77 269.01 538.99 C 271.51 549.22 275.35 566.78 274.00 577.00 C 272.65 587.22 274.44 611.96 287.25 604.25 C 300.06 596.54 287.86 579.49 290.00 568.00 C 292.14 556.51 291.58 538.91 292.00 527.00 C 292.43 515.10 301.47 502.79 299.00 491.00 Z"/>
</g>
<g fill="None" fill-opacity="0.0" stroke="#311B3F" stroke-opacity="1.00" stroke-width="0.3"><path d="
M 491.00 140.00 
C 486.32 143.92 481.51 150.09 478.00 155.00
C 473.90 160.73 470.44 169.52 464.00 173.00
C 494.68 166.09 517.98 193.84 535.30 216.70 C 552.63 239.55 550.62 284.55 536.70 309.69 C 522.77 334.84 506.77 357.04 488.00 379.00
C 480.06 388.29 472.00 396.14 462.00 403.00
C 458.87 405.15 455.87 407.55 453.00 410.00
C 441.34 419.96 430.11 429.99 418.00 439.00
C 413.02 443.34 407.45 449.19 403.00 454.00
C 394.39 464.91 377.73 478.53 377.00 493.00
C 376.42 504.53 382.98 514.08 384.00 526.00 C 385.02 537.92 384.75 550.16 386.00 563.00 C 387.25 575.84 381.16 587.39 385.23 599.77 C 389.30 612.15 403.83 600.51 401.00 589.00 C 398.17 577.49 401.72 562.39 402.67 551.67 C 403.62 540.95 408.01 529.88 411.23 520.23 C 414.45 510.58 419.72 502.84 424.23 494.23 C 428.74 485.62 434.24 478.50 439.75 470.75 C 445.26 463.00 451.65 455.76 457.25 448.25 C 462.85 440.74 469.61 434.80 475.75 427.75 C 481.89 420.71 487.99 414.44 494.75 407.75 C 501.51 401.07 509.28 395.54 516.25 389.25 C 523.22 382.95 530.09 377.19 537.25 371.25 C 544.41 365.31 551.81 360.09 558.75 353.75 C 565.69 347.41 572.92 341.34 579.75 334.75 C 586.59 328.16 592.69 322.06 598.75 314.75 C 604.81 307.44 609.95 300.22 614.75 291.75 C 619.54 283.27 624.74 274.69 628.02 265.02 C 631.30 255.36 634.53 244.59 636.00 234.00 C 637.47 223.41 637.28 208.25 634.98 198.02 C 632.68 187.79 629.65 177.05 624.77 168.23 C 619.89 159.41 615.22 153.18 607.75 146.25 C 600.27 139.33 593.47 135.27 584.08 130.92 C 574.68 126.58 562.92 123.52 552.00 123.00 C 541.08 122.48 526.85 123.33 517.07 127.07 C 507.30 130.81 499.46 133.96 491.00 140.00 Z"/>
</g>
<g fill="None" fill-opacity="0.0" stroke="#D4B3BC" stroke-opacity="1.00" stroke-width="0.3"><path d="
M 469.00 155.00 
C 471.73 155.39 474.85 156.70 478.00 155.00
C 481.51 150.09 486.32 143.92 491.00 140.00
C 483.36 145.45 479.23 154.84 469.00 155.00 Z"/>
</g>
<g fill="None" fill-opacity="0.0" stroke="#59B3BC" stroke-opacity="1.00" stroke-width="0.3"><path d="
M 201.00 158.00 
C 202.93 161.85 203.01 167.77 206.00 171.00
C 212.41 177.94 226.64 173.76 232.75 182.25 C 238.86 190.73 246.18 193.81 249.00 204.00
C 249.13 204.46 249.00 205.50 249.00 206.00
C 250.74 211.01 252.31 216.12 249.00 221.00
C 249.00 221.50 249.08 222.51 249.00 223.00
C 247.98 228.87 243.45 236.83 239.00 241.00
C 248.99 240.99 259.78 241.11 269.00 242.00
C 276.16 242.00 282.55 242.41 289.00 245.00
C 274.69 228.41 285.15 187.22 310.00 187.00
C 312.12 185.31 311.93 181.40 312.00 179.00
C 313.00 178.89 314.73 179.47 315.00 178.00
C 307.42 172.36 299.92 169.52 291.22 165.78 C 282.53 162.03 275.09 159.60 265.67 156.33 C 256.25 153.05 241.79 157.20 232.00 154.00 C 222.21 150.80 210.05 161.95 201.00 158.00 Z"/>
</g>
<g fill="None" fill-opacity="0.0" stroke="#D93867" stroke-opacity="1.00" stroke-width="0.3"><path d="
M 363.00 176.00 
C 361.66 177.13 360.14 179.29 360.00 181.00
C 364.01 183.02 368.70 184.72 371.00 189.00
C 378.02 195.12 390.31 198.87 390.00 210.00 C 389.70 221.12 394.27 234.95 386.00 244.00
C 389.01 243.06 391.73 242.22 395.00 242.00
C 408.07 241.11 422.66 239.43 436.00 241.00
C 422.11 232.67 423.58 209.83 429.31 197.31 C 435.03 184.78 450.94 175.94 464.00 173.00
C 470.44 169.52 473.90 160.73 478.00 155.00
C 474.85 156.70 471.73 155.39 469.00 155.00
C 432.13 149.73 393.42 155.76 363.00 176.00 Z"/>
</g>
<g fill="None" fill-opacity="0.0" stroke="#341E42" stroke-opacity="1.00" stroke-width="0.3"><path d="
M 203.00 392.00 
C 202.81 391.59 203.00 391.00 203.00 391.00
C 200.92 381.54 191.13 375.94 187.25 366.75 C 183.36 357.57 177.71 347.47 177.00 337.00
C 175.61 330.28 175.34 323.82 176.00 317.00
C 176.00 297.82 184.20 282.99 195.25 268.25 C 206.30 253.51 221.55 249.60 237.00 242.00
C 237.27 241.87 237.65 241.03 238.00 241.00
C 240.25 234.69 246.67 229.58 248.00 223.00
C 247.44 216.86 249.33 209.21 249.00 204.00
C 246.18 193.81 238.86 190.73 232.75 182.25 C 226.64 173.76 212.41 177.94 206.00 171.00
C 204.46 177.60 188.78 175.59 183.68 178.68 C 178.58 181.77 170.77 185.64 165.25 189.25 C 159.72 192.86 155.37 198.36 150.25 203.25 C 145.12 208.14 141.48 213.51 137.92 219.92 C 134.37 226.34 131.78 233.30 129.78 240.78 C 127.77 248.25 126.08 257.70 126.00 266.00 C 125.92 274.30 127.94 283.07 130.69 290.31 C 133.44 297.54 135.93 304.25 139.08 310.92 C 142.22 317.59 145.78 323.40 149.70 329.31 C 153.61 335.21 156.32 341.82 161.08 346.92 C 165.85 352.02 169.19 358.35 173.75 363.25 C 178.31 368.14 183.17 373.91 187.75 378.25 C 192.33 382.59 196.99 390.32 203.00 392.00 Z"/>
</g>
<g fill="None" fill-opacity="0.0" stroke="#55B1BC" stroke-opacity="1.00" stroke-width="0.3"><path d="
M 464.00 173.00 
C 450.94 175.94 435.03 184.78 429.31 197.31 C 423.58 209.83 422.11 232.67 436.00 241.00
C 456.38 243.40 470.15 256.79 483.75 272.25 C 497.35 287.70 501.22 314.77 498.22 335.22 C 495.22 355.68 485.53 372.81 473.00 389.00
C 475.35 386.81 479.32 385.11 482.00 383.00
C 483.90 381.50 486.26 380.46 488.00 379.00
C 506.77 357.04 522.77 334.84 536.70 309.69 C 550.62 284.55 552.63 239.55 535.30 216.70 C 517.98 193.84 494.68 166.09 464.00 173.00 Z"/>
</g>
<g fill="None" fill-opacity="0.0" stroke="#E694A9" stroke-opacity="1.00" stroke-width="0.3"><path d="
M 371.00 189.00 
C 368.70 184.72 364.01 183.02 360.00 181.00
C 360.14 179.29 361.66 177.13 363.00 176.00
C 359.68 177.39 357.57 181.43 361.00 184.00
C 358.18 183.80 354.94 184.23 353.00 186.00
C 357.92 189.49 365.35 186.78 371.00 189.00 Z"/>
</g>
<g fill="None" fill-opacity="0.0" stroke="#AADDDF" stroke-opacity="1.00" stroke-width="0.3"><path d="
M 310.00 187.00 
C 313.56 188.99 318.02 187.58 322.00 188.00
C 322.70 183.55 318.20 180.38 315.00 178.00
C 314.73 179.47 313.00 178.89 312.00 179.00
C 311.93 181.40 312.12 185.31 310.00 187.00 Z"/>
</g>
<g fill="None" fill-opacity="0.0" stroke="#47435E" stroke-opacity="1.00" stroke-width="0.3"><path d="
M 248.00 223.00 
C 248.02 222.90 249.00 223.00 249.00 223.00
C 249.08 222.51 249.00 221.50 249.00 221.00
C 249.00 216.00 249.00 211.00 249.00 206.00
C 249.00 205.50 249.13 204.46 249.00 204.00
C 249.33 209.21 247.44 216.86 248.00 223.00 Z"/>
</g>
<g fill="None" fill-opacity="0.0" stroke="#3D5065" stroke-opacity="1.00" stroke-width="0.3"><path d="
M 249.00 221.00 
C 252.31 216.12 250.74 211.01 249.00 206.00
C 249.00 211.00 249.00 216.00 249.00 221.00 Z"/>
</g>
<g fill="None" fill-opacity="0.0" stroke="#374D6B" stroke-opacity="1.00" stroke-width="0.3"><path d="
M 238.00 241.00 
C 238.50 240.95 239.00 241.00 239.00 241.00
C 243.45 236.83 247.98 228.87 249.00 223.00
C 249.00 223.00 248.02 222.90 248.00 223.00
C 246.67 229.58 240.25 234.69 238.00 241.00 Z"/>
</g>
<g fill="None" fill-opacity="0.0" stroke="#A5B081" stroke-opacity="1.00" stroke-width="0.3"><path d="
M 237.00 242.00 
C 247.13 240.45 258.74 242.00 269.00 242.00
C 259.78 241.11 248.99 240.99 239.00 241.00
C 239.00 241.00 238.50 240.95 238.00 241.00
C 237.65 241.03 237.27 241.87 237.00 242.00 Z"/>
</g>
<g fill="None" fill-opacity="0.0" stroke="#EDB13A" stroke-opacity="1.00" stroke-width="0.3"><path d="
M 395.00 242.00 
C 392.35 242.47 388.01 244.18 385.00 245.00
C 357.82 253.60 350.83 284.21 338.00 305.00
C 326.94 281.50 315.56 255.68 289.00 245.00
C 282.55 242.41 276.16 242.00 269.00 242.00
C 258.74 242.00 247.13 240.45 237.00 242.00
C 221.55 249.60 206.30 253.51 195.25 268.25 C 184.20 282.99 176.00 297.82 176.00 317.00
C 176.00 323.92 176.54 330.19 177.00 337.00
C 177.71 347.47 183.36 357.57 187.25 366.75 C 191.13 375.94 200.92 381.54 203.00 391.00
C 205.52 392.05 207.36 395.09 209.00 397.00
C 223.11 413.51 241.77 425.08 257.25 440.75 C 272.72 456.42 286.84 473.27 299.00 491.00
C 305.36 500.27 310.43 508.76 314.02 519.98 C 317.62 531.19 320.89 542.85 323.01 554.99 C 325.13 567.14 323.71 584.51 325.01 596.99 C 326.31 609.48 347.96 610.46 349.67 597.67 C 351.38 584.88 351.35 568.87 352.01 556.01 C 352.66 543.15 359.33 533.24 361.07 521.07 C 362.81 508.91 371.77 502.90 377.00 493.00
C 377.73 478.53 394.39 464.91 403.00 454.00
C 407.17 448.71 412.64 442.99 418.00 439.00
C 430.11 429.99 441.34 419.96 453.00 410.00
C 459.59 403.41 467.49 396.13 473.00 389.00
C 485.53 372.81 495.22 355.68 498.22 335.22 C 501.22 314.77 497.35 287.70 483.75 272.25 C 470.15 256.79 456.38 243.40 436.00 241.00
C 422.66 239.43 408.07 241.11 395.00 242.00
M 332.00 313.00 
C 332.90 314.49 335.19 315.85 335.00 318.00
C 337.58 317.76 339.62 315.92 342.00 315.00
C 343.29 311.04 345.65 310.06 348.00 307.00
C 352.10 298.03 357.72 290.71 367.08 286.08 C 376.44 281.45 390.60 280.64 401.00 282.00 C 411.40 283.35 420.10 287.95 427.75 295.25 C 435.41 302.55 440.06 309.36 443.77 319.23 C 447.49 329.10 446.04 344.16 443.02 354.02 C 440.01 363.89 433.12 371.53 428.23 380.23 C 423.34 388.93 415.16 393.73 408.25 400.25 C 401.35 406.78 394.25 413.48 387.25 419.25 C 380.24 425.01 373.69 433.50 367.25 439.25 C 360.81 444.99 354.40 456.26 350.23 462.23 C 346.06 468.20 341.61 489.26 333.75 483.25 C 325.90 477.23 329.25 461.99 321.25 455.75 C 313.24 449.52 310.84 439.84 303.75 433.25 C 296.66 426.66 291.07 419.67 283.25 413.75 C 275.43 407.83 268.95 402.47 261.75 395.25 C 254.55 388.02 248.67 382.47 243.08 373.92 C 237.49 365.37 232.23 356.21 230.22 345.78 C 228.22 335.34 229.47 321.44 234.31 312.31 C 239.14 303.17 244.08 296.56 252.70 290.70 C 261.31 284.84 272.44 281.07 283.00 281.00 C 293.56 280.93 305.82 283.79 314.23 289.77 C 322.64 295.75 326.95 304.67 332.00 313.00 Z"/>
</g>
<g fill="None" fill-opacity="0.0" stroke="#DE6E51" stroke-opacity="1.00" stroke-width="0.3"><path d="
M 386.00 244.00 
C 385.65 244.11 385.26 244.77 385.00 245.00
C 388.01 244.18 392.35 242.47 395.00 242.00
C 391.73 242.22 389.01 243.06 386.00 244.00 Z"/>
</g>
<g fill="None" fill-opacity="0.0" stroke="#DA3163" stroke-opacity="1.00" stroke-width="0.3"><path d="
M 348.00 307.00 
C 344.85 313.89 343.15 324.93 335.00 327.00
C 335.53 325.72 334.03 325.14 334.00 324.00
C 332.39 320.76 333.12 316.46 332.00 313.00
C 326.95 304.67 322.64 295.75 314.23 289.77 C 305.82 283.79 293.56 280.93 283.00 281.00 C 272.44 281.07 261.31 284.84 252.70 290.70 C 244.08 296.56 239.14 303.17 234.31 312.31 C 229.47 321.44 228.22 335.34 230.22 345.78 C 232.23 356.21 237.49 365.37 243.08 373.92 C 248.67 382.47 254.55 388.02 261.75 395.25 C 268.95 402.47 275.43 407.83 283.25 413.75 C 291.07 419.67 296.66 426.66 303.75 433.25 C 310.84 439.84 313.24 449.52 321.25 455.75 C 329.25 461.99 325.90 477.23 333.75 483.25 C 341.61 489.26 346.06 468.20 350.23 462.23 C 354.40 456.26 360.81 444.99 367.25 439.25 C 373.69 433.50 380.24 425.01 387.25 419.25 C 394.25 413.48 401.35 406.78 408.25 400.25 C 415.16 393.73 423.34 388.93 428.23 380.23 C 433.12 371.53 440.01 363.89 443.02 354.02 C 446.04 344.16 447.49 329.10 443.77 319.23 C 440.06 309.36 435.41 302.55 427.75 295.25 C 420.10 287.95 411.40 283.35 401.00 282.00 C 390.60 280.64 376.44 281.45 367.08 286.08 C 357.72 290.71 352.10 298.03 348.00 307.00 Z"/>
</g>
<g fill="None" fill-opacity="0.0" stroke="#E2725A" stroke-opacity="1.00" stroke-width="0.3"><path d="
M 342.00 315.00 
C 340.81 318.67 340.49 322.72 338.00 326.00
C 336.18 326.55 335.53 324.25 334.00 324.00
C 334.03 325.14 335.53 325.72 335.00 327.00
C 343.15 324.93 344.85 313.89 348.00 307.00
C 345.65 310.06 343.29 311.04 342.00 315.00 Z"/>
</g>
<g fill="None" fill-opacity="0.0" stroke="#DE8A3E" stroke-opacity="1.00" stroke-width="0.3"><path d="
M 334.00 324.00 
C 335.53 324.25 336.18 326.55 338.00 326.00
C 340.49 322.72 340.81 318.67 342.00 315.00
C 339.62 315.92 337.58 317.76 335.00 318.00
C 335.19 315.85 332.90 314.49 332.00 313.00
C 333.12 316.46 332.39 320.76 334.00 324.00 Z"/>
</g>
<g fill="None" fill-opacity="0.0" stroke="#90603F" stroke-opacity="1.00" stroke-width="0.3"><path d="
M 177.00 337.00 
C 176.54 330.19 176.00 323.92 176.00 317.00
C 175.34 323.82 175.61 330.28 177.00 337.00 Z"/>
</g>
<g fill="None" fill-opacity="0.0" stroke="#333D5F" stroke-opacity="1.00" stroke-width="0.3"><path d="
M 482.00 383.00 
C 478.01 386.69 473.93 390.77 470.00 394.00
C 467.77 397.00 464.68 400.52 462.00 403.00
C 472.00 396.14 480.06 388.29 488.00 379.00
C 486.26 380.46 483.90 381.50 482.00 383.00 Z"/>
</g>
<g fill="None" fill-opacity="0.0" stroke="#477598" stroke-opacity="1.00" stroke-width="0.3"><path d="
M 473.00 389.00 
C 471.80 390.12 471.03 392.62 470.00 394.00
C 473.93 390.77 478.01 386.69 482.00 383.00
C 479.32 385.11 475.35 386.81 473.00 389.00 Z"/>
</g>
<g fill="None" fill-opacity="0.0" stroke="#9A8C6D" stroke-opacity="1.00" stroke-width="0.3"><path d="
M 453.00 410.00 
C 455.87 407.55 458.87 405.15 462.00 403.00
C 464.68 400.52 467.77 397.00 470.00 394.00
C 471.03 392.62 471.80 390.12 473.00 389.00
C 467.49 396.13 459.59 403.41 453.00 410.00 Z"/>
</g>
<g fill="None" fill-opacity="0.0" stroke="#884645" stroke-opacity="1.00" stroke-width="0.3"><path d="
M 203.00 392.00 
C 204.19 394.62 206.98 395.24 209.00 397.00
C 207.36 395.09 205.52 392.05 203.00 391.00
C 203.00 391.00 202.81 391.59 203.00 392.00 Z"/>
</g>
<g fill="None" fill-opacity="0.0" stroke="#91643D" stroke-opacity="1.00" stroke-width="0.3"><path d="
M 403.00 454.00 
C 407.45 449.19 413.02 443.34 418.00 439.00
C 412.64 442.99 407.17 448.71 403.00 454.00 Z"/>
</g>
<g fill="#FDFAF4" fill-opacity="1.00" stroke="None">
<path d="
M 0.00 633.00 
L 665.00 633.00
L 665.00 0.00
L 0.00 0.00
L 0.00 633.00
M 235.00 51.00 
C 264.49 55.79 282.41 95.65 263.23 120.23 C 244.05 144.81 203.78 139.74 190.23 111.77 C 176.68 83.80 202.43 45.71 235.00 51.00
M 488.00 90.00 
C 488.56 93.46 488.61 96.58 488.00 100.00
C 485.97 129.89 445.85 146.65 421.92 129.08 C 397.99 111.51 398.31 74.78 423.75 57.75 C 449.19 40.72 486.31 58.87 488.00 90.00
M 343.00 93.00 
C 368.80 96.69 381.34 130.59 364.75 150.75 C 348.16 170.92 315.17 166.74 304.68 143.32 C 294.19 119.91 316.59 89.23 343.00 93.00
M 135.00 122.00 
C 147.70 122.00 164.02 127.00 174.08 133.92 C 184.14 140.84 195.40 146.80 201.00 158.00
C 210.05 161.95 222.21 150.80 232.00 154.00 C 241.79 157.20 256.25 153.05 265.67 156.33 C 275.09 159.60 282.53 162.03 291.22 165.78 C 299.92 169.52 307.42 172.36 315.00 178.00
C 318.20 180.38 322.70 183.55 322.00 188.00
C 318.02 187.58 313.56 188.99 310.00 187.00
C 285.15 187.22 274.69 228.41 289.00 245.00
C 315.56 255.68 326.94 281.50 338.00 305.00
C 350.83 284.21 357.82 253.60 385.00 245.00
C 385.26 244.77 385.65 244.11 386.00 244.00
C 394.27 234.95 389.70 221.12 390.00 210.00 C 390.31 198.87 378.02 195.12 371.00 189.00
C 365.35 186.78 357.92 189.49 353.00 186.00
C 354.94 184.23 358.18 183.80 361.00 184.00
C 357.57 181.43 359.68 177.39 363.00 176.00
C 393.42 155.76 432.13 149.73 469.00 155.00
C 479.23 154.84 483.36 145.45 491.00 140.00
C 499.46 133.96 507.30 130.81 517.07 127.07 C 526.85 123.33 541.08 122.48 552.00 123.00 C 562.92 123.52 574.68 126.58 584.08 130.92 C 593.47 135.27 600.27 139.33 607.75 146.25 C 615.22 153.18 619.89 159.41 624.77 168.23 C 629.65 177.05 632.68 187.79 634.98 198.02 C 637.28 208.25 637.47 223.41 636.00 234.00 C 634.53 244.59 631.30 255.36 628.02 265.02 C 624.74 274.69 619.54 283.27 614.75 291.75 C 609.95 300.22 604.81 307.44 598.75 314.75 C 592.69 322.06 586.59 328.16 579.75 334.75 C 572.92 341.34 565.69 347.41 558.75 353.75 C 551.81 360.09 544.41 365.31 537.25 371.25 C 530.09 377.19 523.22 382.95 516.25 389.25 C 509.28 395.54 501.51 401.07 494.75 407.75 C 487.99 414.44 481.89 420.71 475.75 427.75 C 469.61 434.80 462.85 440.74 457.25 448.25 C 451.65 455.76 445.26 463.00 439.75 470.75 C 434.24 478.50 428.74 485.62 424.23 494.23 C 419.72 502.84 414.45 510.58 411.23 520.23 C 408.01 529.88 403.62 540.95 402.67 551.67 C 401.72 562.39 398.17 577.49 401.00 589.00 C 403.83 600.51 389.30 612.15 385.23 599.77 C 381.16 587.39 387.25 575.84 386.00 563.00 C 384.75 550.16 385.02 537.92 384.00 526.00 C 382.98 514.08 376.42 504.53 377.00 493.00
C 371.77 502.90 362.81 508.91 361.07 521.07 C 359.33 533.24 352.66 543.15 352.01 556.01 C 351.35 568.87 351.38 584.88 349.67 597.67 C 347.96 610.46 326.31 609.48 325.01 596.99 C 323.71 584.51 325.13 567.14 323.01 554.99 C 320.89 542.85 317.62 531.19 314.02 519.98 C 310.43 508.76 305.36 500.27 299.00 491.00
C 301.47 502.79 292.43 515.10 292.00 527.00 C 291.58 538.91 292.14 556.51 290.00 568.00 C 287.86 579.49 300.06 596.54 287.25 604.25 C 274.44 611.96 272.65 587.22 274.00 577.00 C 275.35 566.78 271.51 549.22 269.01 538.99 C 266.50 528.77 261.18 517.52 257.22 507.78 C 253.27 498.04 247.36 488.84 242.08 479.92 C 236.80 471.00 229.93 462.63 223.25 454.75 C 216.57 446.88 210.89 438.65 203.70 431.30 C 196.50 423.95 189.46 417.06 182.25 409.75 C 175.04 402.44 166.88 395.51 159.25 388.75 C 151.62 381.99 143.12 376.47 135.75 369.25 C 128.39 362.02 120.17 356.10 112.25 349.75 C 104.33 343.40 96.68 337.25 89.75 329.25 C 82.82 321.25 76.42 313.49 70.08 304.92 C 63.74 296.34 58.69 288.34 53.23 278.77 C 47.77 269.20 44.26 259.10 41.07 247.93 C 37.89 236.75 37.30 221.70 37.78 209.78 C 38.26 197.86 42.24 185.24 46.77 174.77 C 51.31 164.30 55.29 156.54 63.25 148.25 C 71.21 139.95 77.85 134.97 88.22 130.22 C 98.60 125.47 111.95 122.00 124.00 122.00
C 127.46 121.67 131.61 121.67 135.00 122.00 Z"/>
</g>
<g fill="#5AB4BE" fill-opacity="1.00" stroke="None">
<path d="
M 235.00 51.00 
C 202.43 45.71 176.68 83.80 190.23 111.77 C 203.78 139.74 244.05 144.81 263.23 120.23 C 282.41 95.65 264.49 55.79 235.00 51.00 Z"/>
</g>
<g fill="#D93567" fill-opacity="1.00" stroke="None">
<path d="
M 488.00 100.00 
C 488.22 96.75 488.18 93.25 488.00 90.00
C 486.31 58.87 449.19 40.72 423.75 57.75 C 398.31 74.78 397.99 111.51 421.92 129.08 C 445.85 146.65 485.97 129.89 488.00 100.00 Z"/>
</g>
<g fill="#ED9DB2" fill-opacity="1.00" stroke="None">
<path d="
M 488.00 100.00 
C 488.61 96.58 488.56 93.46 488.00 90.00
C 488.18 93.25 488.22 96.75 488.00 100.00 Z"/>
</g>
<g fill="#EFB43D" fill-opacity="1.00" stroke="None">
<path d="
M 343.00 93.00 
C 316.59 89.23 294.19 119.91 304.68 143.32 C 315.17 166.74 348.16 170.92 364.75 150.75 C 381.34 130.59 368.80 96.69 343.00 93.00 Z"/>
</g>
<g fill="#EC99AE" fill-opacity="1.00" stroke="None">
<path d="
M 124.00 122.00 
C 127.67 122.00 131.33 122.00 135.00 122.00
C 131.61 121.67 127.46 121.67 124.00 122.00 Z"/>
</g>
<g fill="#D93463" fill-opacity="1.00" stroke="None">
<path d="
M 299.00 491.00 
C 286.84 473.27 272.72 456.42 257.25 440.75 C 241.77 425.08 223.11 413.51 209.00 397.00
C 206.98 395.24 204.19 394.62 203.00 392.00
C 196.99 390.32 192.33 382.59 187.75 378.25 C 183.17 373.91 178.31 368.14 173.75 363.25 C 169.19 358.35 165.85 352.02 161.08 346.92 C 156.32 341.82 153.61 335.21 149.70 329.31 C 145.78 323.40 142.22 317.59 139.08 310.92 C 135.93 304.25 133.44 297.54 130.69 290.31 C 127.94 283.07 125.92 274.30 126.00 266.00 C 126.08 257.70 127.77 248.25 129.78 240.78 C 131.78 233.30 134.37 226.34 137.92 219.92 C 141.48 213.51 145.12 208.14 150.25 203.25 C 155.37 198.36 159.72 192.86 165.25 189.25 C 170.77 185.64 178.58 181.77 183.68 178.68 C 188.78 175.59 204.46 177.60 206.00 171.00
C 203.01 167.77 202.93 161.85 201.00 158.00
C 195.40 146.80 184.14 140.84 174.08 133.92 C 164.02 127.00 147.70 122.00 135.00 122.00
C 131.33 122.00 127.67 122.00 124.00 122.00
C 111.95 122.00 98.60 125.47 88.22 130.22 C 77.85 134.97 71.21 139.95 63.25 148.25 C 55.29 156.54 51.31 164.30 46.77 174.77 C 42.24 185.24 38.26 197.86 37.78 209.78 C 37.30 221.70 37.89 236.75 41.07 247.93 C 44.26 259.10 47.77 269.20 53.23 278.77 C 58.69 288.34 63.74 296.34 70.08 304.92 C 76.42 313.49 82.82 321.25 89.75 329.25 C 96.68 337.25 104.33 343.40 112.25 349.75 C 120.17 356.10 128.39 362.02 135.75 369.25 C 143.12 376.47 151.62 381.99 159.25 388.75 C 166.88 395.51 175.04 402.44 182.25 409.75 C 189.46 417.06 196.50 423.95 203.70 431.30 C 210.89 438.65 216.57 446.88 223.25 454.75 C 229.93 462.63 236.80 471.00 242.08 479.92 C 247.36 488.84 253.27 498.04 257.22 507.78 C 261.18 517.52 266.50 528.77 269.01 538.99 C 271.51 549.22 275.35 566.78 274.00 577.00 C 272.65 587.22 274.44 611.96 287.25 604.25 C 300.06 596.54 287.86 579.49 290.00 568.00 C 292.14 556.51 291.58 538.91 292.00 527.00 C 292.43 515.10 301.47 502.79 299.00 491.00 Z"/>
</g>
<g fill="#311B3F" fill-opacity="1.00" stroke="None">
<path d="
M 491.00 140.00 
C 486.32 143.92 481.51 150.09 478.00 155.00
C 473.90 160.73 470.44 169.52 464.00 173.00
C 494.68 166.09 517.98 193.84 535.30 216.70 C 552.63 239.55 550.62 284.55 536.70 309.69 C 522.77 334.84 506.77 357.04 488.00 379.00
C 480.06 388.29 472.00 396.14 462.00 403.00
C 458.87 405.15 455.87 407.55 453.00 410.00
C 441.34 419.96 430.11 429.99 418.00 439.00
C 413.02 443.34 407.45 449.19 403.00 454.00
C 394.39 464.91 377.73 478.53 377.00 493.00
C 376.42 504.53 382.98 514.08 384.00 526.00 C 385.02 537.92 384.75 550.16 386.00 563.00 C 387.25 575.84 381.16 587.39 385.23 599.77 C 389.30 612.15 403.83 600.51 401.00 589.00 C 398.17 577.49 401.72 562.39 402.67 551.67 C 403.62 540.95 408.01 529.88 411.23 520.23 C 414.45 510.58 419.72 502.84 424.23 494.23 C 428.74 485.62 434.24 478.50 439.75 470.75 C 445.26 463.00 451.65 455.76 457.25 448.25 C 462.85 440.74 469.61 434.80 475.75 427.75 C 481.89 420.71 487.99 414.44 494.75 407.75 C 501.51 401.07 509.28 395.54 516.25 389.25 C 523.22 382.95 530.09 377.19 537.25 371.25 C 544.41 365.31 551.81 360.09 558.75 353.75 C 565.69 347.41 572.92 341.34 579.75 334.75 C 586.59 328.16 592.69 322.06 598.75 314.75 C 604.81 307.44 609.95 300.22 614.75 291.75 C 619.54 283.27 624.74 274.69 628.02 265.02 C 631.30 255.36 634.53 244.59 636.00 234.00 C 637.47 223.41 637.28 208.25 634.98 198.02 C 632.68 187.79 629.65 177.05 624.77 168.23 C 619.89 159.41 615.22 153.18 607.75 146.25 C 600.27 139.33 593.47 135.27 584.08 130.92 C 574.68 126.58 562.92 123.52 552.00 123.00 C 541.08 122.48 526.85 123.33 517.07 127.07 C 507.30 130.81 499.46 133.96 491.00 140.00 Z"/>
</g>
<g fill="#D4B3BC" fill-opacity="1.00" stroke="None">
<path d="
M 469.00 155.00 
C 471.73 155.39 474.85 156.70 478.00 155.00
C 481.51 150.09 486.32 143.92 491.00 140.00
C 483.36 145.45 479.23 154.84 469.00 155.00 Z"/>
</g>
<g fill="#59B3BC" fill-opacity="1.00" stroke="None">
<path d="
M 201.00 158.00 
C 202.93 161.85 203.01 167.77 206.00 171.00
C 212.41 177.94 226.64 173.76 232.75 182.25 C 238.86 190.73 246.18 193.81 249.00 204.00
C 249.13 204.46 249.00 205.50 249.00 206.00
C 250.74 211.01 252.31 216.12 249.00 221.00
C 249.00 221.50 249.08 222.51 249.00 223.00
C 247.98 228.87 243.45 236.83 239.00 241.00
C 248.99 240.99 259.78 241.11 269.00 242.00
C 276.16 242.00 282.55 242.41 289.00 245.00
C 274.69 228.41 285.15 187.22 310.00 187.00
C 312.12 185.31 311.93 181.40 312.00 179.00
C 313.00 178.89 314.73 179.47 315.00 178.00
C 307.42 172.36 299.92 169.52 291.22 165.78 C 282.53 162.03 275.09 159.60 265.67 156.33 C 256.25 153.05 241.79 157.20 232.00 154.00 C 222.21 150.80 210.05 161.95 201.00 158.00 Z"/>
</g>
<g fill="#D93867" fill-opacity="1.00" stroke="None">
<path d="
M 363.00 176.00 
C 361.66 177.13 360.14 179.29 360.00 181.00
C 364.01 183.02 368.70 184.72 371.00 189.00
C 378.02 195.12 390.31 198.87 390.00 210.00 C 389.70 221.12 394.27 234.95 386.00 244.00
C 389.01 243.06 391.73 242.22 395.00 242.00
C 408.07 241.11 422.66 239.43 436.00 241.00
C 422.11 232.67 423.58 209.83 429.31 197.31 C 435.03 184.78 450.94 175.94 464.00 173.00
C 470.44 169.52 473.90 160.73 478.00 155.00
C 474.85 156.70 471.73 155.39 469.00 155.00
C 432.13 149.73 393.42 155.76 363.00 176.00 Z"/>
</g>
<g fill="#341E42" fill-opacity="1.00" stroke="None">
<path d="
M 203.00 392.00 
C 202.81 391.59 203.00 391.00 203.00 391.00
C 200.92 381.54 191.13 375.94 187.25 366.75 C 183.36 357.57 177.71 347.47 177.00 337.00
C 175.61 330.28 175.34 323.82 176.00 317.00
C 176.00 297.82 184.20 282.99 195.25 268.25 C 206.30 253.51 221.55 249.60 237.00 242.00
C 237.27 241.87 237.65 241.03 238.00 241.00
C 240.25 234.69 246.67 229.58 248.00 223.00
C 247.44 216.86 249.33 209.21 249.00 204.00
C 246.18 193.81 238.86 190.73 232.75 182.25 C 226.64 173.76 212.41 177.94 206.00 171.00
C 204.46 177.60 188.78 175.59 183.68 178.68 C 178.58 181.77 170.77 185.64 165.25 189.25 C 159.72 192.86 155.37 198.36 150.25 203.25 C 145.12 208.14 141.48 213.51 137.92 219.92 C 134.37 226.34 131.78 233.30 129.78 240.78 C 127.77 248.25 126.08 257.70 126.00 266.00 C 125.92 274.30 127.94 283.07 130.69 290.31 C 133.44 297.54 135.93 304.25 139.08 310.92 C 142.22 317.59 145.78 323.40 149.70 329.31 C 153.61 335.21 156.32 341.82 161.08 346.92 C 165.85 352.02 169.19 358.35 173.75 363.25 C 178.31 368.14 183.17 373.91 187.75 378.25 C 192.33 382.59 196.99 390.32 203.00 392.00 Z"/>
</g>
<g fill="#55B1BC" fill-opacity="1.00" stroke="None">
<path d="
M 464.00 173.00 
C 450.94 175.94 435.03 184.78 429.31 197.31 C 423.58 209.83 422.11 232.67 436.00 241.00
C 456.38 243.40 470.15 256.79 483.75 272.25 C 497.35 287.70 501.22 314.77 498.22 335.22 C 495.22 355.68 485.53 372.81 473.00 389.00
C 475.35 386.81 479.32 385.11 482.00 383.00
C 483.90 381.50 486.26 380.46 488.00 379.00
C 506.77 357.04 522.77 334.84 536.70 309.69 C 550.62 284.55 552.63 239.55 535.30 216.70 C 517.98 193.84 494.68 166.09 464.00 173.00 Z"/>
</g>
<g fill="#E694A9" fill-opacity="1.00" stroke="None">
<path d="
M 371.00 189.00 
C 368.70 184.72 364.01 183.02 360.00 181.00
C 360.14 179.29 361.66 177.13 363.00 176.00
C 359.68 177.39 357.57 181.43 361.00 184.00
C 358.18 183.80 354.94 184.23 353.00 186.00
C 357.92 189.49 365.35 186.78 371.00 189.00 Z"/>
</g>
<g fill="#AADDDF" fill-opacity="1.00" stroke="None">
<path d="
M 310.00 187.00 
C 313.56 188.99 318.02 187.58 322.00 188.00
C 322.70 183.55 318.20 180.38 315.00 178.00
C 314.73 179.47 313.00 178.89 312.00 179.00
C 311.93 181.40 312.12 185.31 310.00 187.00 Z"/>
</g>
<g fill="#47435E" fill-opacity="1.00" stroke="None">
<path d="
M 248.00 223.00 
C 248.02 222.90 249.00 223.00 249.00 223.00
C 249.08 222.51 249.00 221.50 249.00 221.00
C 249.00 216.00 249.00 211.00 249.00 206.00
C 249.00 205.50 249.13 204.46 249.00 204.00
C 249.33 209.21 247.44 216.86 248.00 223.00 Z"/>
</g>
<g fill="#3D5065" fill-opacity="1.00" stroke="None">
<path d="
M 249.00 221.00 
C 252.31 216.12 250.74 211.01 249.00 206.00
C 249.00 211.00 249.00 216.00 249.00 221.00 Z"/>
</g>
<g fill="#374D6B" fill-opacity="1.00" stroke="None">
<path d="
M 238.00 241.00 
C 238.50 240.95 239.00 241.00 239.00 241.00
C 243.45 236.83 247.98 228.87 249.00 223.00
C 249.00 223.00 248.02 222.90 248.00 223.00
C 246.67 229.58 240.25 234.69 238.00 241.00 Z"/>
</g>
<g fill="#A5B081" fill-opacity="1.00" stroke="None">
<path d="
M 237.00 242.00 
C 247.13 240.45 258.74 242.00 269.00 242.00
C 259.78 241.11 248.99 240.99 239.00 241.00
C 239.00 241.00 238.50 240.95 238.00 241.00
C 237.65 241.03 237.27 241.87 237.00 242.00 Z"/>
</g>
<g fill="#EDB13A" fill-opacity="1.00" stroke="None">
<path d="
M 395.00 242.00 
C 392.35 242.47 388.01 244.18 385.00 245.00
C 357.82 253.60 350.83 284.21 338.00 305.00
C 326.94 281.50 315.56 255.68 289.00 245.00
C 282.55 242.41 276.16 242.00 269.00 242.00
C 258.74 242.00 247.13 240.45 237.00 242.00
C 221.55 249.60 206.30 253.51 195.25 268.25 C 184.20 282.99 176.00 297.82 176.00 317.00
C 176.00 323.92 176.54 330.19 177.00 337.00
C 177.71 347.47 183.36 357.57 187.25 366.75 C 191.13 375.94 200.92 381.54 203.00 391.00
C 205.52 392.05 207.36 395.09 209.00 397.00
C 223.11 413.51 241.77 425.08 257.25 440.75 C 272.72 456.42 286.84 473.27 299.00 491.00
C 305.36 500.27 310.43 508.76 314.02 519.98 C 317.62 531.19 320.89 542.85 323.01 554.99 C 325.13 567.14 323.71 584.51 325.01 596.99 C 326.31 609.48 347.96 610.46 349.67 597.67 C 351.38 584.88 351.35 568.87 352.01 556.01 C 352.66 543.15 359.33 533.24 361.07 521.07 C 362.81 508.91 371.77 502.90 377.00 493.00
C 377.73 478.53 394.39 464.91 403.00 454.00
C 407.17 448.71 412.64 442.99 418.00 439.00
C 430.11 429.99 441.34 419.96 453.00 410.00
C 459.59 403.41 467.49 396.13 473.00 389.00
C 485.53 372.81 495.22 355.68 498.22 335.22 C 501.22 314.77 497.35 287.70 483.75 272.25 C 470.15 256.79 456.38 243.40 436.00 241.00
C 422.66 239.43 408.07 241.11 395.00 242.00
M 332.00 313.00 
C 332.90 314.49 335.19 315.85 335.00 318.00
C 337.58 317.76 339.62 315.92 342.00 315.00
C 343.29 311.04 345.65 310.06 348.00 307.00
C 352.10 298.03 357.72 290.71 367.08 286.08 C 376.44 281.45 390.60 280.64 401.00 282.00 C 411.40 283.35 420.10 287.95 427.75 295.25 C 435.41 302.55 440.06 309.36 443.77 319.23 C 447.49 329.10 446.04 344.16 443.02 354.02 C 440.01 363.89 433.12 371.53 428.23 380.23 C 423.34 388.93 415.16 393.73 408.25 400.25 C 401.35 406.78 394.25 413.48 387.25 419.25 C 380.24 425.01 373.69 433.50 367.25 439.25 C 360.81 444.99 354.40 456.26 350.23 462.23 C 346.06 468.20 341.61 489.26 333.75 483.25 C 325.90 477.23 329.25 461.99 321.25 455.75 C 313.24 449.52 310.84 439.84 303.75 433.25 C 296.66 426.66 291.07 419.67 283.25 413.75 C 275.43 407.83 268.95 402.47 261.75 395.25 C 254.55 388.02 248.67 382.47 243.08 373.92 C 237.49 365.37 232.23 356.21 230.22 345.78 C 228.22 335.34 229.47 321.44 234.31 312.31 C 239.14 303.17 244.08 296.56 252.70 290.70 C 261.31 284.84 272.44 281.07 283.00 281.00 C 293.56 280.93 305.82 283.79 314.23 289.77 C 322.64 295.75 326.95 304.67 332.00 313.00 Z"/>
</g>
<g fill="#DE6E51" fill-opacity="1.00" stroke="None">
<path d="
M 386.00 244.00 
C 385.65 244.11 385.26 244.77 385.00 245.00
C 388.01 244.18 392.35 242.47 395.00 242.00
C 391.73 242.22 389.01 243.06 386.00 244.00 Z"/>
</g>
<g fill="#DA3163" fill-opacity="1.00" stroke="None">
<path d="
M 348.00 307.00 
C 344.85 313.89 343.15 324.93 335.00 327.00
C 335.53 325.72 334.03 325.14 334.00 324.00
C 332.39 320.76 333.12 316.46 332.00 313.00
C 326.95 304.67 322.64 295.75 314.23 289.77 C 305.82 283.79 293.56 280.93 283.00 281.00 C 272.44 281.07 261.31 284.84 252.70 290.70 C 244.08 296.56 239.14 303.17 234.31 312.31 C 229.47 321.44 228.22 335.34 230.22 345.78 C 232.23 356.21 237.49 365.37 243.08 373.92 C 248.67 382.47 254.55 388.02 261.75 395.25 C 268.95 402.47 275.43 407.83 283.25 413.75 C 291.07 419.67 296.66 426.66 303.75 433.25 C 310.84 439.84 313.24 449.52 321.25 455.75 C 329.25 461.99 325.90 477.23 333.75 483.25 C 341.61 489.26 346.06 468.20 350.23 462.23 C 354.40 456.26 360.81 444.99 367.25 439.25 C 373.69 433.50 380.24 425.01 387.25 419.25 C 394.25 413.48 401.35 406.78 408.25 400.25 C 415.16 393.73 423.34 388.93 428.23 380.23 C 433.12 371.53 440.01 363.89 443.02 354.02 C 446.04 344.16 447.49 329.10 443.77 319.23 C 440.06 309.36 435.41 302.55 427.75 295.25 C 420.10 287.95 411.40 283.35 401.00 282.00 C 390.60 280.64 376.44 281.45 367.08 286.08 C 357.72 290.71 352.10 298.03 348.00 307.00 Z"/>
</g>
<g fill="#E2725A" fill-opacity="1.00" stroke="None">
<path d="
M 342.00 315.00 
C 340.81 318.67 340.49 322.72 338.00 326.00
C 336.18 326.55 335.53 324.25 334.00 324.00
C 334.03 325.14 335.53 325.72 335.00 327.00
C 343.15 324.93 344.85 313.89 348.00 307.00
C 345.65 310.06 343.29 311.04 342.00 315.00 Z"/>
</g>
<g fill="#DE8A3E" fill-opacity="1.00" stroke="None">
<path d="
M 334.00 324.00 
C 335.53 324.25 336.18 326.55 338.00 326.00
C 340.49 322.72 340.81 318.67 342.00 315.00
C 339.62 315.92 337.58 317.76 335.00 318.00
C 335.19 315.85 332.90 314.49 332.00 313.00
C 333.12 316.46 332.39 320.76 334.00 324.00 Z"/>
</g>
<g fill="#90603F" fill-opacity="1.00" stroke="None">
<path d="
M 177.00 337.00 
C 176.54 330.19 176.00 323.92 176.00 317.00
C 175.34 323.82 175.61 330.28 177.00 337.00 Z"/>
</g>
<g fill="#333D5F" fill-opacity="1.00" stroke="None">
<path d="
M 482.00 383.00 
C 478.01 386.69 473.93 390.77 470.00 394.00
C 467.77 397.00 464.68 400.52 462.00 403.00
C 472.00 396.14 480.06 388.29 488.00 379.00
C 486.26 380.46 483.90 381.50 482.00 383.00 Z"/>
</g>
<g fill="#477598" fill-opacity="1.00" stroke="None">
<path d="
M 473.00 389.00 
C 471.80 390.12 471.03 392.62 470.00 394.00
C 473.93 390.77 478.01 386.69 482.00 383.00
C 479.32 385.11 475.35 386.81 473.00 389.00 Z"/>
</g>
<g fill="#9A8C6D" fill-opacity="1.00" stroke="None">
<path d="
M 453.00 410.00 
C 455.87 407.55 458.87 405.15 462.00 403.00
C 464.68 400.52 467.77 397.00 470.00 394.00
C 471.03 392.62 471.80 390.12 473.00 389.00
C 467.49 396.13 459.59 403.41 453.00 410.00 Z"/>
</g>
<g fill="#884645" fill-opacity="1.00" stroke="None">
<path d="
M 203.00 392.00 
C 204.19 394.62 206.98 395.24 209.00 397.00
C 207.36 395.09 205.52 392.05 203.00 391.00
C 203.00 391.00 202.81 391.59 203.00 392.00 Z"/>
</g>
<g fill="#91643D" fill-opacity="1.00" stroke="None">
<path d="
M 403.00 454.00 
C 407.45 449.19 413.02 443.34 418.00 439.00
C 412.64 442.99 407.17 448.71 403.00 454.00 Z"/>
</g>
</svg>